#!OML:ASF F:\VICON\USERDATA\INSTALL\rory3\rory3.ASF
:FULLY-SPECIFIED
:DEGREES
107
root 4.37323 17.6697 1.33548 19.5098 2.6253 -4.53032
lowerback -7.40281 -0.227059 5.22025
upperback -11.5023 -0.147777 4.4742
thorax -8.04028 -0.272174 1.83245
lowerneck -4.60002 17.4279 12.0333
upperneck 17.68 22.0785 2.92229
head 7.20407 11.6256 1.01111
rclavicle -1.91827e-014 3.26007e-014
rhumerus -7.42015 -20.5087 15.566
rradius 124.883
rwrist -56.7013
rhand -5.23332 -47.0267
rfingers 7.12502
rthumb 20.5692 -75.9569
lclavicle -1.91827e-014 3.26007e-014
lhumerus 30.3096 26.536 -11.6593
lradius 37.1483
lwrist 48.4715
lhand -27.579 -17.087
lfingers 7.12502
lthumb -0.979304 12.8905
rfemur -10.5647 4.49029 -0.852862
rtibia 11.668
rfoot -0.195502 -31.7081
rtoes 22.52
lfemur -21.616 -1.65739 -24.2722
ltibia 17.6939
lfoot -13.8178 7.63515
ltoes 9.57122
108
root 4.37348 17.6679 1.3302 19.5021 2.62033 -4.57608
lowerback -7.52421 -0.180601 5.32043
upperback -11.3891 -0.108028 4.43158
thorax -7.84468 -0.25949 1.72593
lowerneck -5.17304 17.3664 11.8922
upperneck 18.3653 21.8885 3.19147
head 7.47244 11.5541 1.18012
rclavicle 1.15295e-014 -2.06736e-014
rhumerus -7.30673 -20.5764 15.193
rradius 124.739
rwrist -56.4745
rhand -5.19421 -46.7434
rfingers 7.12502
rthumb 20.6068 -75.6696
lclavicle 1.15295e-014 -2.06736e-014
lhumerus 30.1727 26.2811 -11.8998
lradius 37.396
lwrist 48.7616
lhand -27.0443 -16.9717
lfingers 7.12502
lthumb -0.462872 13.0075
rfemur -10.6985 4.30359 -0.790882
rtibia 11.9004
rfoot -2.59734 -31.5168
rtoes 26.5261
lfemur -21.6215 -1.62856 -24.2416
ltibia 17.691
lfoot -13.7917 7.64667
ltoes 9.26953
109
root 4.36889 17.6688 1.31776 19.4824 2.65711 -4.5575
lowerback -7.38871 -0.180617 5.30933
upperback -11.4027 -0.0973737 4.38625
thorax -7.93659 -0.256647 1.68606
lowerneck -5.50445 17.2819 11.8504
upperneck 18.9451 21.7134 3.32803
head 7.69528 11.4862 1.2733
rclavicle 6.65929e-015 -3.73715e-014
rhumerus -7.19213 -20.4619 14.9239
rradius 124.675
rwrist -56.3761
rhand -4.81205 -46.4708
rfingers 7.12502
rthumb 20.974 -75.3567
lclavicle 6.65929e-015 -3.73715e-014
lhumerus 30.1725 26.169 -11.8738
lradius 37.6035
lwrist 48.7946
lhand -27.008 -17.1056
lfingers 7.12502
lthumb -0.427778 12.8738
rfemur -10.8629 4.23353 -0.760228
rtibia 12.2072
rfoot -1.48861 -31.4336
rtoes 24.5773
lfemur -21.6611 -1.60665 -24.2416
ltibia 17.6663
lfoot -13.6862 7.59722
ltoes 9.0484
110
root 4.36146 17.6708 1.30853 19.412 2.64551 -4.43757
lowerback -7.2495 -0.216264 5.12804
upperback -11.4066 -0.131049 4.35957
thorax -8.0168 -0.261187 1.75983
lowerneck -5.40874 17.1953 11.862
upperneck 19.1898 21.6444 3.16074
head 7.7796 11.446 1.22225
rclavicle 3.18055e-015 -5.56597e-015
rhumerus -6.96365 -20.3616 14.6343
rradius 124.657
rwrist -56.3816
rhand -4.39055 -46.3372
rfingers 7.12502
rthumb 21.3789 -75.1777
lclavicle 3.18055e-015 -5.56597e-015
lhumerus 30.051 26.0272 -11.9129
lradius 37.8304
lwrist 48.7928
lhand -27.6459 -17.3781
lfingers 7.12502
lthumb -1.04396 12.5991
rfemur -11.029 4.26102 -0.839899
rtibia 12.5922
rfoot -0.0896271 -31.3509
rtoes 21.8082
lfemur -21.6165 -1.56939 -24.3542
ltibia 17.6355
lfoot -13.6071 7.56677
ltoes 9.16852
111
root 4.35384 17.6711 1.29791 19.4137 2.51229 -4.29518
lowerback -7.14614 -0.221067 4.8939
upperback -11.451 -0.12335 4.34054
thorax -8.1212 -0.240831 1.87224
lowerneck -5.30278 17.1363 11.7635
upperneck 19.4232 21.608 3.10291
head 7.8339 11.424 1.21547
rclavicle -9.34288e-015 2.70347e-014
rhumerus -6.65558 -20.1794 14.2715
rradius 124.592
rwrist -56.1069
rhand -4.15509 -46.274
rfingers 7.12502
rthumb 21.605 -75.0887
lclavicle -9.34288e-015 2.70347e-014
lhumerus 29.8044 25.6832 -12.1351
lradius 38.1129
lwrist 48.9829
lhand -28.0237 -17.4179
lfingers 7.12502
lthumb -1.4088 12.5572
rfemur -11.3558 4.35612 -1.01212
rtibia 12.9943
rfoot -0.338047 -31.3593
rtoes 21.9281
lfemur -21.6131 -1.47748 -24.5326
ltibia 17.5858
lfoot -13.5344 7.59232
ltoes 9.10919
112
root 4.34641 17.6715 1.29 19.4035 2.34113 -4.24783
lowerback -7.03068 -0.195264 4.74156
upperback -11.5066 -0.0739075 4.33986
thorax -8.24732 -0.20534 1.95945
lowerneck -5.72249 17.1548 11.423
upperneck 20.0754 21.5487 3.52553
head 8.03423 11.4174 1.44815
rclavicle 6.65929e-015 -2.46493e-014
rhumerus -6.47198 -19.853 13.9925
rradius 124.575
rwrist -55.7987
rhand -4.45445 -46.1408
rfingers 7.12502
rthumb 21.3175 -74.9883
lclavicle 6.65929e-015 -2.46493e-014
lhumerus 29.8513 25.6148 -11.9418
lradius 38.2345
lwrist 48.7328
lhand -27.4459 -17.3842
lfingers 7.12502
lthumb -0.850781 12.5938
rfemur -11.6499 4.43684 -1.08871
rtibia 13.326
rfoot 0.107449 -31.3728
rtoes 21.2471
lfemur -21.61 -1.37711 -24.6045
ltibia 17.545
lfoot -13.501 7.60312
ltoes 9.06495
113
root 4.3424 17.672 1.29148 19.2944 2.25549 -4.23977
lowerback -6.92846 -0.183625 4.6984
upperback -11.5595 -0.0470701 4.32851
thorax -8.36505 -0.190334 1.97446
lowerneck -5.08064 17.0777 11.6345
upperneck 20.0148 21.5368 3.35443
head 7.95015 11.418 1.30905
rclavicle 1.11319e-014 -6.75868e-014
rhumerus -6.46304 -19.438 13.9118
rradius 124.743
rwrist -55.8487
rhand -5.0167 -46.142
rfingers 7.12502
rthumb 20.7774 -75.0496
lclavicle 1.11319e-014 -6.75868e-014
lhumerus 30.0058 25.6106 -11.6033
lradius 38.3196
lwrist 48.347
lhand -25.8636 -17.2372
lfingers 7.12502
lthumb 0.677464 12.7415
rfemur -11.7135 4.34535 -1.06868
rtibia 13.5933
rfoot 0.854821 -31.2372
rtoes 20.3281
lfemur -21.4908 -1.31839 -24.6248
ltibia 17.5442
lfoot -13.5624 7.57611
ltoes 9.24544
114
root 4.34066 17.671 1.29284 19.1815 2.29152 -4.21552
lowerback -6.8707 -0.203584 4.71359
upperback -11.5676 -0.0706256 4.30006
thorax -8.40743 -0.205243 1.93683
lowerneck -4.71531 17.0302 11.778
upperneck 20.0333 21.5326 3.21681
head 7.92776 11.4185 1.21981
rclavicle -9.83984e-015 2.94201e-014
rhumerus -6.45149 -19.217 13.819
rradius 124.93
rwrist -55.9697
rhand -4.83095 -46.3702
rfingers 7.12502
rthumb 20.9558 -75.2582
lclavicle -9.83984e-015 2.94201e-014
lhumerus 29.9634 25.4515 -11.5749
lradius 38.4875
lwrist 48.1366
lhand -24.311 -17.0476
lfingers 7.12502
lthumb 2.17698 12.921
rfemur -11.6732 4.1906 -1.02422
rtibia 13.796
rfoot 1.8597 -31.0297
rtoes 18.5887
lfemur -21.3793 -1.33188 -24.6491
ltibia 17.5947
lfoot -13.635 7.57653
ltoes 9.10974
115
root 4.33777 17.6695 1.28492 19.1159 2.38393 -4.2361
lowerback -6.88607 -0.214153 4.76986
upperback -11.4644 -0.094401 4.27741
thorax -8.2825 -0.221173 1.87757
lowerneck -4.38146 16.9556 11.9613
upperneck 19.7363 21.5246 2.83325
head 7.83618 11.3926 1.03781
rclavicle 1.45113e-014 -4.05521e-014
rhumerus -6.38226 -19.3207 13.5721
rradius 124.985
rwrist -55.8369
rhand -4.15254 -46.5145
rfingers 7.12502
rthumb 21.6075 -75.329
lclavicle 1.45113e-014 -4.05521e-014
lhumerus 29.9604 25.5459 -11.4712
lradius 38.7212
lwrist 48.1031
lhand -23.7972 -17.0005
lfingers 7.12502
lthumb 2.67322 12.9625
rfemur -11.6515 4.10769 -0.925986
rtibia 13.8998
rfoot 5.09344 -30.5807
rtoes 12.131
lfemur -21.3914 -1.4078 -24.5866
ltibia 17.6904
lfoot -13.6416 7.61088
ltoes 8.85514
116
root 4.3334 17.6697 1.2732 19.1334 2.52613 -4.27153
lowerback -6.98403 -0.225307 4.80727
upperback -11.3237 -0.126604 4.26946
thorax -8.06806 -0.237684 1.84203
lowerneck -3.89486 16.826 12.2012
upperneck 19.2037 21.4808 2.28769
head 7.66313 11.3387 0.770487
rclavicle 3.27995e-015 -7.15625e-015
rhumerus -6.36824 -19.5059 13.3285
rradius 125.036
rwrist -55.6482
rhand -3.92426 -46.5271
rfingers 7.12502
rthumb 21.8267 -75.3162
lclavicle 3.27995e-015 -7.15625e-015
lhumerus 30.045 25.8571 -11.2269
lradius 38.9929
lwrist 48.3075
lhand -24.3972 -16.9493
lfingers 7.12502
lthumb 2.09379 13.0202
rfemur -11.7113 3.96547 -0.799328
rtibia 14.0024
rfoot 6.86037 -30.2272
rtoes 8.27746
lfemur -21.5338 -1.42656 -24.4977
ltibia 17.7764
lfoot -13.6066 7.49743
ltoes 8.91733
117
root 4.33183 17.6687 1.26933 19.1269 2.69656 -4.2964
lowerback -7.10881 -0.248683 4.88025
upperback -11.1745 -0.178606 4.26223
thorax -7.83034 -0.266438 1.78687
lowerneck -3.93744 16.703 12.1852
upperneck 19.2438 21.3362 2.13185
head 7.69242 11.2559 0.716325
rclavicle -2.49475e-014 4.45278e-014
rhumerus -6.35074 -19.6502 13.0872
rradius 125.12
rwrist -55.6238
rhand -3.92983 -46.6248
rfingers 7.12502
rthumb 21.8213 -75.4145
lclavicle -2.49475e-014 4.45278e-014
lhumerus 30.1598 26.1282 -10.9893
lradius 39.0988
lwrist 48.2039
lhand -24.8816 -16.888
lfingers 7.12502
lthumb 1.62591 13.0856
rfemur -11.7427 3.69781 -0.667239
rtibia 14.2126
rfoot 6.73108 -30.0763
rtoes 8.12994
lfemur -21.5886 -1.42451 -24.4444
ltibia 17.8181
lfoot -13.5726 7.32523
ltoes 9.09311
